<?xml version="1.0" standalone="no"?>
<!DOCTYPE svg PUBLIC "-//W3C//DTD SVG 20010904//EN"
 "http://www.w3.org/TR/2001/REC-SVG-20010904/DTD/svg10.dtd">
<svg version="1.0" xmlns="http://www.w3.org/2000/svg"
 width="600.000000pt" height="315.000000pt" viewBox="0 0 600.000000 315.000000"
 preserveAspectRatio="xMidYMid meet">

<g transform="translate(0.000000,315.000000) scale(0.100000,-0.100000)"
fill="#000000" stroke="none">
<path d="M770 2156 c-80 -40 -179 -92 -220 -116 -41 -24 -113 -64 -159 -89
-92 -50 -126 -89 -136 -156 -10 -65 16 -115 173 -333 81 -112 195 -270 253
-350 116 -161 147 -188 206 -177 49 9 87 48 496 514 96 110 111 144 82 188
-54 83 -472 565 -505 583 -10 6 -25 10 -32 10 -7 -1 -78 -34 -158 -74z"/>
<path d="M1895 1987 c-3 -6 -4 -197 -3 -422 l3 -410 55 0 55 0 5 299 5 298
269 -301 c210 -235 274 -301 290 -299 21 3 21 5 21 423 l0 420 -57 3 -58 3 -2
-292 -3 -291 -259 291 c-226 253 -263 291 -288 291 -16 0 -31 -6 -33 -13z"/>
<path d="M2932 1578 l3 -423 220 0 220 0 0 55 0 55 -162 3 -163 2 0 135 0 135
163 2 162 3 0 55 0 55 -162 3 -163 2 0 110 0 110 160 0 c159 0 160 0 166 24 3
13 4 38 2 57 l-3 34 -223 3 -222 2 2 -422z"/>
<path d="M3943 1986 c-65 -21 -124 -60 -175 -114 -191 -204 -141 -543 100
-670 113 -60 226 -65 349 -16 l65 26 32 -31 c28 -27 39 -31 88 -31 31 0 60 5
63 10 3 6 -18 36 -48 68 l-54 57 33 45 c93 124 97 325 11 472 -36 62 -118 135
-185 166 -69 32 -209 41 -279 18z m244 -132 c100 -48 163 -156 163 -278 0 -71
-20 -138 -53 -179 l-22 -29 -58 62 -58 61 -52 -3 c-76 -4 -74 -23 14 -113 l72
-74 -29 -13 c-16 -7 -65 -13 -109 -13 -92 1 -135 18 -199 82 -62 61 -81 112
-81 218 0 70 5 100 21 136 72 156 238 217 391 143z"/>
<path d="M4746 1985 c-8 -23 -7 -342 3 -500 8 -143 17 -168 78 -236 59 -65
124 -93 213 -94 123 0 216 59 271 171 24 49 24 51 24 359 l0 310 -57 3 -58 3
0 -264 c0 -288 -7 -353 -45 -403 -50 -66 -159 -81 -230 -33 -69 48 -69 50 -75
389 l-5 305 -56 3 c-45 2 -58 0 -63 -13z"/>
<path d="M5672 1578 l3 -423 55 0 55 0 0 420 0 420 -58 3 -57 3 2 -423z"/>
</g>
</svg>
