<?xml version="1.0" standalone="no"?>
<!DOCTYPE svg PUBLIC "-//W3C//DTD SVG 20010904//EN"
 "http://www.w3.org/TR/2001/REC-SVG-20010904/DTD/svg10.dtd">
<svg version="1.0" xmlns="http://www.w3.org/2000/svg"
 width="683.000000pt" height="284.000000pt" viewBox="0 0 683.000000 284.000000"
 preserveAspectRatio="xMidYMid meet">

<g transform="translate(0.000000,284.000000) scale(0.100000,-0.100000)"
fill="#000000" stroke="none">
<path d="M495 2702 c-108 -67 -205 -272 -205 -436 0 -116 47 -240 121 -321 21
-23 39 -46 39 -50 0 -4 -35 -5 -77 -3 -43 3 -107 2 -142 -3 -52 -6 -70 -13
-94 -38 -26 -25 -31 -40 -35 -90 -13 -176 176 -350 412 -380 l50 -6 17 -125
c10 -69 25 -153 34 -187 8 -34 15 -65 15 -69 0 -12 -210 7 -284 26 -39 10 -74
16 -78 14 -3 -2 -17 -35 -29 -72 -30 -89 -31 -190 -2 -252 41 -85 36 -84 148
-29 101 49 297 119 332 119 11 0 25 -11 33 -24 12 -23 9 -29 -41 -85 l-54 -61
-7 27 c-10 36 -45 62 -83 63 -38 0 -55 -16 -55 -51 0 -35 51 -79 90 -79 l29 0
-35 -52 c-19 -29 -34 -56 -34 -60 0 -4 -7 -5 -15 -2 -8 3 -32 -4 -53 -16 l-39
-22 -39 25 c-21 14 -52 39 -68 56 l-29 31 18 34 c23 42 16 54 -19 31 -25 -17
-27 -16 -46 6 l-20 24 6 -30 c19 -85 86 -159 188 -205 105 -49 99 -50 138 32
19 40 64 111 99 157 35 46 73 96 83 111 l20 27 59 -38 c119 -77 245 -105 435
-96 137 6 246 36 330 92 30 19 57 35 60 35 4 0 19 -17 34 -38 15 -20 50 -66
78 -102 28 -36 67 -98 87 -138 35 -70 38 -73 66 -68 85 17 194 99 228 171 24
53 25 76 2 53 -14 -15 -19 -15 -45 -2 -32 17 -36 6 -12 -31 14 -22 14 -26 -1
-49 -18 -27 -100 -86 -120 -86 -7 0 -18 7 -25 15 -7 8 -24 15 -39 15 -21 1
-33 12 -62 63 l-36 62 27 11 c30 13 60 50 60 75 0 24 -33 49 -64 49 -17 0 -39
-11 -57 -30 l-30 -29 -34 37 c-40 42 -40 45 -20 62 13 11 27 11 73 0 71 -15
205 -66 299 -113 79 -40 80 -40 119 33 27 51 25 176 -5 253 -12 31 -25 57 -28
57 -3 0 -33 -7 -66 -16 -50 -13 -256 -36 -264 -30 -1 1 11 40 27 86 16 47 39
137 51 200 12 63 23 120 24 126 2 6 30 14 63 17 256 27 485 276 407 441 -28
58 -64 71 -201 71 l-121 0 42 48 c142 162 163 394 55 607 -38 76 -115 155
-159 165 -65 14 -88 -21 -111 -170 -16 -105 -14 -103 -111 -62 -174 73 -320
101 -534 101 -213 0 -385 -33 -544 -105 -35 -16 -65 -29 -67 -29 -8 0 -34 105
-40 162 -11 96 -54 129 -119 90z m57 -117 c13 -99 35 -161 69 -189 l30 -26 67
34 c146 73 338 116 525 116 59 0 107 -2 107 -4 0 -2 -16 -28 -36 -57 -89 -132
-126 -244 -126 -379 -1 -148 53 -283 155 -388 62 -65 104 -83 204 -88 48 -2
92 -9 100 -16 8 -6 29 -43 47 -83 37 -80 71 -112 128 -121 21 -4 40 -9 42 -13
7 -11 -24 -167 -50 -258 -69 -238 -202 -382 -400 -429 -91 -22 -275 -22 -368
0 -93 22 -175 68 -235 131 -90 95 -130 203 -166 454 -14 90 -26 165 -27 166
-2 1 -43 7 -92 13 -59 8 -111 22 -152 41 -153 71 -256 237 -195 312 19 24 22
24 251 29 l233 5 -81 52 c-92 61 -150 122 -189 202 -26 52 -28 65 -28 181 0
119 2 129 34 202 33 79 113 182 135 175 6 -2 14 -30 18 -62z m1028 -543 c60
-61 59 -176 -2 -227 -34 -29 -57 -31 -97 -10 -79 40 -80 208 -2 250 40 22 70
18 101 -13z m-1065 -1080 l130 -4 30 -63 30 -62 -57 -15 c-52 -13 -75 -10 -48
7 20 12 11 75 -15 100 -29 30 -36 31 -66 6 -33 -27 -33 -90 0 -125 14 -14 19
-26 12 -26 -6 0 -48 -17 -92 -37 -78 -35 -81 -36 -109 -20 -15 9 -37 17 -48
17 -26 0 -32 19 -31 88 2 87 9 105 49 113 19 4 40 15 45 23 6 9 16 13 25 10 8
-4 73 -9 145 -12z m1585 -37 c7 -8 25 -15 41 -15 30 0 34 -7 44 -80 9 -68 -5
-103 -43 -111 -18 -4 -38 -12 -45 -18 -11 -8 -32 -3 -90 24 -42 19 -81 35 -88
35 -7 0 -2 11 11 25 31 33 31 92 0 117 l-21 17 23 5 c22 5 70 11 129 14 15 1
32 -5 39 -13z m-229 -23 c-23 -18 -30 -59 -17 -98 6 -21 6 -21 -52 -6 l-58 16
34 53 c32 49 38 53 75 53 39 0 39 0 18 -18z m-1311 -2 c0 -5 -5 -10 -12 -10
-6 0 -3 -6 7 -14 20 -14 14 -53 -6 -40 -8 4 -7 9 2 15 11 8 11 11 -3 19 -9 6
-15 17 -12 25 7 17 24 20 24 5z m1351 -29 c-12 -8 -13 -12 -1 -26 18 -21 -3
-46 -22 -26 -11 10 -10 11 5 6 22 -9 22 4 0 20 -19 14 -10 35 15 35 14 0 15
-2 3 -9z m-1347 -196 c-5 -11 0 -14 17 -13 15 2 24 -3 27 -14 2 -10 -2 -18 -8
-18 -6 0 -8 5 -5 10 4 6 -5 10 -19 10 -24 0 -35 18 -19 33 10 11 13 8 7 -8z
m1296 5 c0 -5 -7 -7 -16 -3 -12 4 -14 0 -8 -21 5 -22 3 -26 -15 -26 -12 0 -21
4 -21 10 0 5 8 6 17 3 13 -5 15 -2 10 11 -4 10 -5 22 -1 27 7 12 34 12 34 -1z"/>
<path d="M4630 2002 l0 -678 215 -434 c119 -239 218 -436 220 -439 3 -2 5 72
5 166 0 143 3 173 16 184 25 21 48 0 219 -199 160 -187 248 -266 308 -277 18
-3 125 -5 238 -3 l206 3 -283 328 c-196 227 -284 335 -284 351 0 20 195 254
558 669 16 18 8 18 -213 15 -229 -3 -230 -3 -276 -30 -62 -36 -125 -100 -319
-326 l-165 -191 -5 702 c-5 765 -3 729 -62 784 -46 44 -88 53 -238 53 l-140 0
0 -678z"/>
<path d="M2660 1685 c0 -3 153 -311 340 -685 l340 -681 61 3 60 3 345 683 345
682 -153 0 c-176 0 -212 -7 -255 -52 -18 -19 -98 -167 -186 -343 l-155 -310
-160 320 c-88 176 -170 330 -183 342 -13 12 -37 26 -52 32 -28 11 -347 16
-347 6z"/>
<path d="M6110 1005 l0 -685 205 0 205 0 0 603 0 602 -24 50 c-45 96 -88 115
-261 115 l-125 0 0 -685z"/>
</g>
</svg>
